<?xml version="1.0" encoding="UTF-8" standalone="no"?>
<!DOCTYPE svg PUBLIC "-//W3C//DTD SVG 1.1//EN" "http://www.w3.org/Graphics/SVG/1.1/DTD/svg11.dtd">
<!-- Created with Vectornator (http://vectornator.io/) -->
<svg height="100%" stroke-miterlimit="10" style="fill-rule:nonzero;clip-rule:evenodd;stroke-linecap:round;stroke-linejoin:round;" version="1.1" viewBox="0 0 24 24" width="100%" xml:space="preserve" xmlns="http://www.w3.org/2000/svg" xmlns:vectornator="http://vectornator.io" xmlns:xlink="http://www.w3.org/1999/xlink">
<defs/>
<g id="Sans-titre" vectornator:layerName="Sans titre">
<path d="M7.40911 0L16.5909 0C20.6828 0 24 3.34915 24 7.48054L24 16.5195C24 20.6508 20.6828 24 16.5909 24L7.40911 24C3.31717 24 1.1229e-16 20.6508 1.1229e-16 16.5195L1.1229e-16 7.48054C1.1229e-16 3.34915 3.31717 0 7.40911 0Z" fill="#ffffff" fill-rule="nonzero" opacity="1" stroke="none"/>
<path d="M11.25 11.25L11.291 11.23C11.5528 11.0992 11.8669 11.1327 12.0952 11.3157C12.3236 11.4988 12.4247 11.798 12.354 12.082L11.646 14.918C11.5748 15.2022 11.6756 15.5018 11.9041 15.6852C12.1326 15.8685 12.447 15.902 12.709 15.771L12.75 15.75M21 12C21 16.9706 16.9706 21 12 21C7.02944 21 3 16.9706 3 12C3 7.02944 7.02944 3 12 3C16.9706 3 21 7.02944 21 12ZM12 8.25L12.008 8.25L12.008 8.258L12 8.258L12 8.25Z" fill="none" opacity="1" stroke="#000000" stroke-linecap="round" stroke-linejoin="round" stroke-width="1.5" vectornator:layerName="path"/>
</g>
</svg>
